<svg width="2330" height="512" viewBox="0 0 2330 512" fill="none" xmlns="http://www.w3.org/2000/svg">
<path d="M636.17 241.633C636.17 237.133 634.577 233.664 631.389 231.227C628.248 228.789 622.553 226.328 614.303 223.844C606.053 221.359 599.491 218.594 594.616 215.547C585.287 209.688 580.623 202.047 580.623 192.625C580.623 184.375 583.975 177.578 590.678 172.234C597.428 166.891 606.17 164.219 616.905 164.219C624.03 164.219 630.381 165.531 635.959 168.156C641.537 170.781 645.92 174.531 649.108 179.406C652.295 184.234 653.889 189.602 653.889 195.508H636.17C636.17 190.164 634.483 185.992 631.108 182.992C627.78 179.945 622.998 178.422 616.764 178.422C610.952 178.422 606.428 179.664 603.194 182.148C600.006 184.633 598.412 188.102 598.412 192.555C598.412 196.305 600.147 199.445 603.616 201.977C607.084 204.461 612.803 206.898 620.772 209.289C628.741 211.633 635.139 214.328 639.967 217.375C644.795 220.375 648.334 223.844 650.584 227.781C652.834 231.672 653.959 236.242 653.959 241.492C653.959 250.023 650.678 256.82 644.116 261.883C637.6 266.898 628.741 269.406 617.537 269.406C610.131 269.406 603.311 268.047 597.077 265.328C590.889 262.562 586.061 258.766 582.592 253.938C579.17 249.109 577.459 243.484 577.459 237.062H595.248C595.248 242.875 597.17 247.375 601.014 250.562C604.858 253.75 610.366 255.344 617.537 255.344C623.725 255.344 628.366 254.102 631.459 251.617C634.6 249.086 636.17 245.758 636.17 241.633ZM729.805 222.297H687.758V253.797H736.906V268H669.969V165.625H736.414V179.969H687.758V208.234H729.805V222.297ZM769.58 253.797H816.056V268H751.791V165.625H769.58V253.797ZM851.683 245.711L877.698 165.625H897.245L860.402 268H843.175L806.472 165.625H825.948L851.683 245.711ZM961.208 244.164H921.552L913.255 268H894.762L933.434 165.625H949.395L988.137 268H969.575L961.208 244.164ZM926.544 229.82H956.216L941.38 187.352L926.544 229.82ZM1081.42 268H1063.63L1018 195.367V268H1000.21V165.625H1018L1063.77 238.539V165.625H1081.42V268ZM1192.61 241.633C1192.61 237.133 1191.02 233.664 1187.83 231.227C1184.69 228.789 1178.99 226.328 1170.74 223.844C1162.49 221.359 1155.93 218.594 1151.06 215.547C1141.73 209.688 1137.06 202.047 1137.06 192.625C1137.06 184.375 1140.42 177.578 1147.12 172.234C1153.87 166.891 1162.61 164.219 1173.35 164.219C1180.47 164.219 1186.82 165.531 1192.4 168.156C1197.98 170.781 1202.36 174.531 1205.55 179.406C1208.74 184.234 1210.33 189.602 1210.33 195.508H1192.61C1192.61 190.164 1190.92 185.992 1187.55 182.992C1184.22 179.945 1179.44 178.422 1173.2 178.422C1167.39 178.422 1162.87 179.664 1159.63 182.148C1156.45 184.633 1154.85 188.102 1154.85 192.555C1154.85 196.305 1156.59 199.445 1160.06 201.977C1163.52 204.461 1169.24 206.898 1177.21 209.289C1185.18 211.633 1191.58 214.328 1196.41 217.375C1201.24 220.375 1204.77 223.844 1207.02 227.781C1209.27 231.672 1210.4 236.242 1210.4 241.492C1210.4 250.023 1207.12 256.82 1200.56 261.883C1194.04 266.898 1185.18 269.406 1173.98 269.406C1166.57 269.406 1159.75 268.047 1153.52 265.328C1147.33 262.562 1142.5 258.766 1139.03 253.938C1135.61 249.109 1133.9 243.484 1133.9 237.062H1151.69C1151.69 242.875 1153.61 247.375 1157.45 250.562C1161.3 253.75 1166.81 255.344 1173.98 255.344C1180.17 255.344 1184.81 254.102 1187.9 251.617C1191.04 249.086 1192.61 245.758 1192.61 241.633ZM1300.38 179.969H1268.46V268H1250.81V179.969H1219.17V165.625H1300.38V179.969ZM1374.11 222.297H1332.07V253.797H1381.22V268H1314.28V165.625H1380.72V179.969H1332.07V208.234H1374.11V222.297ZM1455.94 222.297H1413.89V253.797H1463.04V268H1396.1V165.625H1462.55V179.969H1413.89V208.234H1455.94V222.297ZM1495.71 253.797H1542.19V268H1477.92V165.625H1495.71V253.797ZM1673.77 268H1656.05V222.508H1610.28V268H1592.49V165.625H1610.28V208.234H1656.05V165.625H1673.77V268ZM1776.97 219.484C1776.97 229.516 1775.23 238.328 1771.76 245.922C1768.29 253.469 1763.32 259.281 1756.86 263.359C1750.43 267.391 1743.03 269.406 1734.64 269.406C1726.34 269.406 1718.93 267.391 1712.42 263.359C1705.95 259.281 1700.93 253.492 1697.37 245.992C1693.86 238.492 1692.07 229.844 1692.03 220.047V214.281C1692.03 204.297 1693.79 195.484 1697.3 187.844C1700.86 180.203 1705.86 174.367 1712.28 170.336C1718.75 166.258 1726.15 164.219 1734.5 164.219C1742.84 164.219 1750.22 166.234 1756.65 170.266C1763.11 174.25 1768.11 180.016 1771.62 187.562C1775.14 195.062 1776.92 203.805 1776.97 213.789V219.484ZM1759.18 214.141C1759.18 202.797 1757.02 194.102 1752.71 188.055C1748.44 182.008 1742.37 178.984 1734.5 178.984C1726.81 178.984 1720.79 182.008 1716.43 188.055C1712.11 194.055 1709.91 202.562 1709.82 213.578V219.484C1709.82 230.734 1712 239.43 1716.36 245.57C1720.76 251.711 1726.86 254.781 1734.64 254.781C1742.51 254.781 1748.56 251.781 1752.78 245.781C1757.04 239.781 1759.18 231.016 1759.18 219.484V214.141ZM1869.97 165.625V234.039C1869.97 244.914 1866.47 253.539 1859.49 259.914C1852.55 266.242 1843.3 269.406 1831.72 269.406C1820 269.406 1810.69 266.289 1803.8 260.055C1796.91 253.773 1793.47 245.078 1793.47 233.969V165.625H1811.19V234.109C1811.19 240.953 1812.92 246.18 1816.39 249.789C1819.86 253.398 1824.97 255.203 1831.72 255.203C1845.4 255.203 1852.25 247.984 1852.25 233.547V165.625H1869.97ZM1942.93 241.633C1942.93 237.133 1941.34 233.664 1938.15 231.227C1935.01 228.789 1929.31 226.328 1921.06 223.844C1912.81 221.359 1906.25 218.594 1901.38 215.547C1892.05 209.688 1887.38 202.047 1887.38 192.625C1887.38 184.375 1890.73 177.578 1897.44 172.234C1904.19 166.891 1912.93 164.219 1923.66 164.219C1930.79 164.219 1937.14 165.531 1942.72 168.156C1948.3 170.781 1952.68 174.531 1955.87 179.406C1959.05 184.234 1960.65 189.602 1960.65 195.508H1942.93C1942.93 190.164 1941.24 185.992 1937.87 182.992C1934.54 179.945 1929.76 178.422 1923.52 178.422C1917.71 178.422 1913.19 179.664 1909.95 182.148C1906.77 184.633 1905.17 188.102 1905.17 192.555C1905.17 196.305 1906.91 199.445 1910.38 201.977C1913.84 204.461 1919.56 206.898 1927.53 209.289C1935.5 211.633 1941.9 214.328 1946.73 217.375C1951.55 220.375 1955.09 223.844 1957.34 227.781C1959.59 231.672 1960.72 236.242 1960.72 241.492C1960.72 250.023 1957.44 256.82 1950.88 261.883C1944.36 266.898 1935.5 269.406 1924.3 269.406C1916.89 269.406 1910.07 268.047 1903.84 265.328C1897.65 262.562 1892.82 258.766 1889.35 253.938C1885.93 249.109 1884.22 243.484 1884.22 237.062H1902.01C1902.01 242.875 1903.93 247.375 1907.77 250.562C1911.62 253.75 1917.12 255.344 1924.3 255.344C1930.48 255.344 1935.12 254.102 1938.22 251.617C1941.36 249.086 1942.93 245.758 1942.93 241.633ZM2036.56 222.297H1994.52V253.797H2043.67V268H1976.73V165.625H2043.17V179.969H1994.52V208.234H2036.56V222.297Z" fill="#FF4949" fill-opacity="0.95"/>
<path d="M686.638 378C688.054 378 689.148 378.406 689.919 379.219C690.69 380.01 691.075 381.01 691.075 382.219C691.075 383.406 690.69 384.396 689.919 385.188C689.148 385.958 688.054 386.344 686.638 386.344C685.283 386.344 684.21 385.958 683.419 385.188C682.627 384.417 682.231 383.427 682.231 382.219C682.231 381.01 682.617 380.01 683.388 379.219C684.158 378.406 685.242 378 686.638 378ZM716.944 376.094L728.506 340.5H737.194L720.819 386H713.163L696.85 340.5H705.506L716.944 376.094ZM769.344 365.688H750.656V379.688H772.5V386H742.75V340.5H772.281V346.875H750.656V359.438H769.344V365.688ZM803.119 374.281C803.119 372.281 802.41 370.74 800.994 369.656C799.598 368.573 797.067 367.479 793.4 366.375C789.733 365.271 786.817 364.042 784.65 362.688C780.504 360.083 778.431 356.688 778.431 352.5C778.431 348.833 779.921 345.812 782.9 343.438C785.9 341.062 789.785 339.875 794.556 339.875C797.723 339.875 800.546 340.458 803.025 341.625C805.504 342.792 807.452 344.458 808.869 346.625C810.285 348.771 810.994 351.156 810.994 353.781H803.119C803.119 351.406 802.369 349.552 800.869 348.219C799.39 346.865 797.265 346.188 794.494 346.188C791.91 346.188 789.9 346.74 788.463 347.844C787.046 348.948 786.338 350.49 786.338 352.469C786.338 354.135 787.108 355.531 788.65 356.656C790.192 357.76 792.733 358.844 796.275 359.906C799.817 360.948 802.66 362.146 804.806 363.5C806.952 364.833 808.525 366.375 809.525 368.125C810.525 369.854 811.025 371.885 811.025 374.219C811.025 378.01 809.567 381.031 806.65 383.281C803.754 385.51 799.817 386.625 794.838 386.625C791.546 386.625 788.515 386.021 785.744 384.812C782.994 383.583 780.848 381.896 779.306 379.75C777.785 377.604 777.025 375.104 777.025 372.25H784.931C784.931 374.833 785.785 376.833 787.494 378.25C789.202 379.667 791.65 380.375 794.838 380.375C797.588 380.375 799.65 379.823 801.025 378.719C802.421 377.594 803.119 376.115 803.119 374.281ZM842.144 374.281C842.144 372.281 841.435 370.74 840.019 369.656C838.623 368.573 836.092 367.479 832.425 366.375C828.758 365.271 825.842 364.042 823.675 362.688C819.529 360.083 817.456 356.688 817.456 352.5C817.456 348.833 818.946 345.812 821.925 343.438C824.925 341.062 828.81 339.875 833.581 339.875C836.748 339.875 839.571 340.458 842.05 341.625C844.529 342.792 846.477 344.458 847.894 346.625C849.31 348.771 850.019 351.156 850.019 353.781H842.144C842.144 351.406 841.394 349.552 839.894 348.219C838.415 346.865 836.29 346.188 833.519 346.188C830.935 346.188 828.925 346.74 827.488 347.844C826.071 348.948 825.363 350.49 825.363 352.469C825.363 354.135 826.133 355.531 827.675 356.656C829.217 357.76 831.758 358.844 835.3 359.906C838.842 360.948 841.685 362.146 843.831 363.5C845.977 364.833 847.55 366.375 848.55 368.125C849.55 369.854 850.05 371.885 850.05 374.219C850.05 378.01 848.592 381.031 845.675 383.281C842.779 385.51 838.842 386.625 833.863 386.625C830.571 386.625 827.54 386.021 824.769 384.812C822.019 383.583 819.873 381.896 818.331 379.75C816.81 377.604 816.05 375.104 816.05 372.25H823.956C823.956 374.833 824.81 376.833 826.519 378.25C828.227 379.667 830.675 380.375 833.863 380.375C836.613 380.375 838.675 379.823 840.05 378.719C841.446 377.594 842.144 376.115 842.144 374.281ZM883.981 365.688H865.294V379.688H887.138V386H857.388V340.5H886.919V346.875H865.294V359.438H883.981V365.688ZM901.881 379.688H922.538V386H893.975V340.5H901.881V379.688ZM952.781 374.281C952.781 372.281 952.073 370.74 950.656 369.656C949.26 368.573 946.729 367.479 943.062 366.375C939.396 365.271 936.479 364.042 934.312 362.688C930.167 360.083 928.094 356.688 928.094 352.5C928.094 348.833 929.583 345.812 932.562 343.438C935.562 341.062 939.448 339.875 944.219 339.875C947.385 339.875 950.208 340.458 952.688 341.625C955.167 342.792 957.115 344.458 958.531 346.625C959.948 348.771 960.656 351.156 960.656 353.781H952.781C952.781 351.406 952.031 349.552 950.531 348.219C949.052 346.865 946.927 346.188 944.156 346.188C941.573 346.188 939.562 346.74 938.125 347.844C936.708 348.948 936 350.49 936 352.469C936 354.135 936.771 355.531 938.312 356.656C939.854 357.76 942.396 358.844 945.938 359.906C949.479 360.948 952.323 362.146 954.469 363.5C956.615 364.833 958.188 366.375 959.188 368.125C960.188 369.854 960.688 371.885 960.688 374.219C960.688 378.01 959.229 381.031 956.312 383.281C953.417 385.51 949.479 386.625 944.5 386.625C941.208 386.625 938.177 386.021 935.406 384.812C932.656 383.583 930.51 381.896 928.969 379.75C927.448 377.604 926.688 375.104 926.688 372.25H934.594C934.594 374.833 935.448 376.833 937.156 378.25C938.865 379.667 941.312 380.375 944.5 380.375C947.25 380.375 949.312 379.823 950.688 378.719C952.083 377.594 952.781 376.115 952.781 374.281ZM988.363 378C989.779 378 990.873 378.406 991.644 379.219C992.415 380.01 992.8 381.01 992.8 382.219C992.8 383.406 992.415 384.396 991.644 385.188C990.873 385.958 989.779 386.344 988.363 386.344C987.008 386.344 985.935 385.958 985.144 385.188C984.352 384.417 983.956 383.427 983.956 382.219C983.956 381.01 984.342 380.01 985.113 379.219C985.883 378.406 986.967 378 988.363 378ZM1038.76 386H1030.89V365.781H1010.54V386H1002.64V340.5H1010.54V359.438H1030.89V340.5H1038.76V386ZM1084.85 364.438C1084.85 368.896 1084.08 372.812 1082.54 376.188C1081 379.542 1078.79 382.125 1075.91 383.938C1073.06 385.729 1069.77 386.625 1066.04 386.625C1062.35 386.625 1059.06 385.729 1056.16 383.938C1053.29 382.125 1051.06 379.552 1049.47 376.219C1047.91 372.885 1047.12 369.042 1047.1 364.688V362.125C1047.1 357.688 1047.88 353.771 1049.44 350.375C1051.03 346.979 1053.25 344.385 1056.1 342.594C1058.97 340.781 1062.27 339.875 1065.97 339.875C1069.68 339.875 1072.96 340.771 1075.82 342.562C1078.69 344.333 1080.91 346.896 1082.47 350.25C1084.04 353.583 1084.83 357.469 1084.85 361.906V364.438ZM1076.94 362.062C1076.94 357.021 1075.99 353.156 1074.07 350.469C1072.17 347.781 1069.47 346.438 1065.97 346.438C1062.56 346.438 1059.88 347.781 1057.94 350.469C1056.03 353.135 1055.05 356.917 1055.01 361.812V364.438C1055.01 369.438 1055.97 373.302 1057.91 376.031C1059.87 378.76 1062.58 380.125 1066.04 380.125C1069.54 380.125 1072.22 378.792 1074.1 376.125C1076 373.458 1076.94 369.562 1076.94 364.438V362.062ZM1103.38 340.5L1116.5 375.375L1129.59 340.5H1139.81V386H1131.94V371L1132.72 350.938L1119.28 386H1113.62L1100.22 350.969L1101 371V386H1093.12V340.5H1103.38ZM1176.18 365.688H1157.49V379.688H1179.34V386H1149.59V340.5H1179.12V346.875H1157.49V359.438H1176.18V365.688ZM1211.64 375.406H1194.02L1190.33 386H1182.11L1199.3 340.5H1206.39L1223.61 386H1215.36L1211.64 375.406ZM1196.24 369.031H1209.43L1202.83 350.156L1196.24 369.031ZM1237.11 369.094V386H1229.2V340.5H1246.61C1251.69 340.5 1255.72 341.823 1258.7 344.469C1261.7 347.115 1263.2 350.615 1263.2 354.969C1263.2 359.427 1261.73 362.896 1258.79 365.375C1255.88 367.854 1251.78 369.094 1246.51 369.094H1237.11ZM1237.11 362.75H1246.61C1249.42 362.75 1251.56 362.094 1253.04 360.781C1254.52 359.448 1255.26 357.531 1255.26 355.031C1255.26 352.573 1254.51 350.615 1253.01 349.156C1251.51 347.677 1249.45 346.917 1246.83 346.875H1237.11V362.75ZM1278.44 369.094V386H1270.54V340.5H1287.94C1293.03 340.5 1297.06 341.823 1300.04 344.469C1303.04 347.115 1304.54 350.615 1304.54 354.969C1304.54 359.427 1303.07 362.896 1300.13 365.375C1297.21 367.854 1293.12 369.094 1287.85 369.094H1278.44ZM1278.44 362.75H1287.94C1290.76 362.75 1292.9 362.094 1294.38 360.781C1295.86 359.448 1296.6 357.531 1296.6 355.031C1296.6 352.573 1295.85 350.615 1294.35 349.156C1292.85 347.677 1290.79 346.917 1288.16 346.875H1278.44V362.75ZM1319.78 379.688H1340.44V386H1311.88V340.5H1319.78V379.688ZM1355.24 386H1347.37V340.5H1355.24V386ZM1391.39 375.406H1373.77L1370.08 386H1361.86L1379.05 340.5H1386.14L1403.36 386H1395.11L1391.39 375.406ZM1375.99 369.031H1389.17L1382.58 350.156L1375.99 369.031ZM1445.04 386H1437.14L1416.86 353.719V386H1408.95V340.5H1416.86L1437.2 372.906V340.5H1445.04V386ZM1489.51 371.188C1489.05 376.042 1487.26 379.833 1484.13 382.562C1481.01 385.271 1476.85 386.625 1471.66 386.625C1468.04 386.625 1464.84 385.771 1462.07 384.062C1459.32 382.333 1457.19 379.885 1455.69 376.719C1454.19 373.552 1453.41 369.875 1453.35 365.688V361.438C1453.35 357.146 1454.11 353.365 1455.63 350.094C1457.15 346.823 1459.33 344.302 1462.16 342.531C1465.02 340.76 1468.31 339.875 1472.04 339.875C1477.06 339.875 1481.1 341.24 1484.16 343.969C1487.23 346.698 1489.01 350.552 1489.51 355.531H1481.63C1481.26 352.26 1480.3 349.906 1478.76 348.469C1477.24 347.01 1475 346.281 1472.04 346.281C1468.6 346.281 1465.95 347.542 1464.1 350.062C1462.27 352.562 1461.33 356.24 1461.29 361.094V365.125C1461.29 370.042 1462.16 373.792 1463.91 376.375C1465.68 378.958 1468.27 380.25 1471.66 380.25C1474.77 380.25 1477.1 379.552 1478.66 378.156C1480.23 376.76 1481.21 374.438 1481.63 371.188H1489.51ZM1523.59 365.688H1504.91V379.688H1526.75V386H1497V340.5H1526.53V346.875H1504.91V359.438H1523.59V365.688ZM1557.37 374.281C1557.37 372.281 1556.66 370.74 1555.24 369.656C1553.85 368.573 1551.32 367.479 1547.65 366.375C1543.98 365.271 1541.07 364.042 1538.9 362.688C1534.75 360.083 1532.68 356.688 1532.68 352.5C1532.68 348.833 1534.17 345.812 1537.15 343.438C1540.15 341.062 1544.04 339.875 1548.81 339.875C1551.97 339.875 1554.8 340.458 1557.28 341.625C1559.75 342.792 1561.7 344.458 1563.12 346.625C1564.54 348.771 1565.24 351.156 1565.24 353.781H1557.37C1557.37 351.406 1556.62 349.552 1555.12 348.219C1553.64 346.865 1551.51 346.188 1548.74 346.188C1546.16 346.188 1544.15 346.74 1542.71 347.844C1541.3 348.948 1540.59 350.49 1540.59 352.469C1540.59 354.135 1541.36 355.531 1542.9 356.656C1544.44 357.76 1546.98 358.844 1550.53 359.906C1554.07 360.948 1556.91 362.146 1559.06 363.5C1561.2 364.833 1562.78 366.375 1563.78 368.125C1564.78 369.854 1565.28 371.885 1565.28 374.219C1565.28 378.01 1563.82 381.031 1560.9 383.281C1558 385.51 1554.07 386.625 1549.09 386.625C1545.8 386.625 1542.76 386.021 1539.99 384.812C1537.24 383.583 1535.1 381.896 1533.56 379.75C1532.04 377.604 1531.28 375.104 1531.28 372.25H1539.18C1539.18 374.833 1540.04 376.833 1541.74 378.25C1543.45 379.667 1545.9 380.375 1549.09 380.375C1551.84 380.375 1553.9 379.823 1555.28 378.719C1556.67 377.594 1557.37 376.115 1557.37 374.281ZM1592.95 378C1594.37 378 1595.46 378.406 1596.23 379.219C1597 380.01 1597.39 381.01 1597.39 382.219C1597.39 383.406 1597 384.396 1596.23 385.188C1595.46 385.958 1594.37 386.344 1592.95 386.344C1591.6 386.344 1590.52 385.958 1589.73 385.188C1588.94 384.417 1588.54 383.427 1588.54 382.219C1588.54 381.01 1588.93 380.01 1589.7 379.219C1590.47 378.406 1591.55 378 1592.95 378ZM1633.44 366.719H1615.13V386H1607.23V340.5H1636.13V346.875H1615.13V360.406H1633.44V366.719ZM1676.09 340.5V370.906C1676.09 375.74 1674.54 379.573 1671.44 382.406C1668.35 385.219 1664.24 386.625 1659.09 386.625C1653.89 386.625 1649.75 385.24 1646.69 382.469C1643.62 379.677 1642.09 375.812 1642.09 370.875V340.5H1649.97V370.938C1649.97 373.979 1650.74 376.302 1652.28 377.906C1653.82 379.51 1656.09 380.312 1659.09 380.312C1665.18 380.312 1668.22 377.104 1668.22 370.688V340.5H1676.09ZM1701.68 368.469H1692.87V386H1684.96V340.5H1700.96C1706.21 340.5 1710.26 341.677 1713.12 344.031C1715.97 346.385 1717.4 349.792 1717.4 354.25C1717.4 357.292 1716.66 359.844 1715.18 361.906C1713.72 363.948 1711.68 365.521 1709.06 366.625L1719.28 385.594V386H1710.81L1701.68 368.469ZM1692.87 362.125H1700.99C1703.66 362.125 1705.74 361.458 1707.24 360.125C1708.74 358.771 1709.49 356.927 1709.49 354.594C1709.49 352.156 1708.8 350.271 1707.4 348.938C1706.03 347.604 1703.96 346.917 1701.21 346.875H1692.87V362.125ZM1761.39 386H1753.49L1733.21 353.719V386H1725.3V340.5H1733.21L1753.55 372.906V340.5H1761.39V386ZM1779.48 386H1771.61V340.5H1779.48V386ZM1821.54 346.875H1807.35V386H1799.51V346.875H1785.44V340.5H1821.54V346.875ZM1861.22 340.5V370.906C1861.22 375.74 1859.67 379.573 1856.56 382.406C1853.48 385.219 1849.36 386.625 1844.22 386.625C1839.01 386.625 1834.88 385.24 1831.81 382.469C1828.75 379.677 1827.22 375.812 1827.22 370.875V340.5H1835.09V370.938C1835.09 373.979 1835.86 376.302 1837.41 377.906C1838.95 379.51 1841.22 380.312 1844.22 380.312C1850.3 380.312 1853.34 377.104 1853.34 370.688V340.5H1861.22ZM1886.81 368.469H1877.99V386H1870.09V340.5H1886.09C1891.34 340.5 1895.39 341.677 1898.24 344.031C1901.1 346.385 1902.52 349.792 1902.52 354.25C1902.52 357.292 1901.79 359.844 1900.31 361.906C1898.85 363.948 1896.81 365.521 1894.18 366.625L1904.4 385.594V386H1895.93L1886.81 368.469ZM1877.99 362.125H1886.12C1888.79 362.125 1890.87 361.458 1892.37 360.125C1893.87 358.771 1894.62 356.927 1894.62 354.594C1894.62 352.156 1893.92 350.271 1892.52 348.938C1891.15 347.604 1889.09 346.917 1886.34 346.875H1877.99V362.125ZM1937.02 365.688H1918.33V379.688H1940.18V386H1910.43V340.5H1939.96V346.875H1918.33V359.438H1937.02V365.688Z" fill="black" fill-opacity="0.82"/>
<path d="M143.15 377.893V358.934C99.3972 332.683 106.138 274.347 106.69 271.43C106.69 204.343 139.543 159.133 139.543 159.133L255.447 6C255.447 6 351.012 135.798 367.055 159.133C412.265 230.594 405.663 271.43 405.663 271.43C405.663 271.43 407.121 329.766 370.661 358.934V373.518C370.661 373.518 371.361 398.311 350.243 398.311H331.284V404.145C331.284 404.145 331.284 421.645 318.158 423.104H305.033V426.021C305.033 426.021 305.033 456.647 277.323 456.647C277.323 468.314 277.615 478.523 277.323 479.982C271.489 490.19 251.072 506.233 232.112 479.982V456.647C207.32 456.647 207.32 426.021 207.32 426.021V423.104H192.736C179.61 420.187 181.068 404.145 181.068 404.145V398.311H162.109C143.15 398.311 143.15 377.893 143.15 377.893Z" stroke="black" stroke-width="5"/>
<path d="M333.562 146.621L313.093 119.756V324.444L333.562 330.841V257.92H352.752C352.752 257.92 357.869 274.551 356.59 287.344C355.31 300.137 346.355 330.841 346.355 330.841H359.148C359.148 330.841 386.014 319.327 386.014 287.344V266.875C383.455 215.703 342.517 155.576 342.517 155.576V188.838L352.752 200.352V227.217H333.562V146.621Z" fill="#D9251F"/>
<path d="M261.66 49.7522L301.426 103.713H269.341C253.476 106.63 252.112 123.409 252.112 124.773C250.748 137.049 253.476 141.141 253.476 141.141C253.476 141.141 258.932 157.509 275.3 180.697C295.76 213.433 298.488 231.165 298.488 231.165V284.362C298.488 284.362 294.755 330.738 280.756 330.738H239.836C239.836 330.738 225.589 330.738 226.196 300.73C226.196 288.454 226.196 288.454 226.196 284.362C226.195 280.813 228.506 272.888 229.964 271.43C231.423 268.513 233.015 266.63 235.744 266.63C238.471 266.63 246.656 277.542 246.656 277.542C246.656 277.542 254.337 287.09 258.931 287.09C269.843 287.09 269.844 277.542 269.844 277.542V236.621C269.844 236.621 263.024 213.433 245.291 186.153C224.831 157.509 226.196 135.685 226.196 135.685V94.7645C233.015 66.1203 261.66 49.7522 261.66 49.7522Z" fill="#009743"/>
<path d="M213.948 154.757V90.5876C213.948 90.5876 154.153 172.258 152.695 173.717C148.294 179.55 145.403 192.676 155.612 202.885C189.129 232.053 186.238 248.095 186.238 248.095V284.556C184.78 303.515 171.628 302.056 171.628 302.056C171.628 302.056 157.07 303.515 157.07 284.556V251.012C142.486 234.97 129.36 251.012 129.36 251.012V296.223C129.36 296.223 127.902 323.932 146.861 329.766H190.613C190.613 329.766 212.489 315.182 213.948 253.929C213.948 253.929 215.406 218.413 200.822 207.26C176.029 188.301 178.906 169.858 178.946 169.342C180.405 150.382 193.53 147.465 193.53 147.465C193.956 147.182 202.281 144.549 209.573 150.382L213.948 154.757Z" fill="#CD291E"/>
<rect x="164.336" y="358.934" width="183.759" height="26.2513" fill="#DA251D"/>
<rect x="196.421" y="393.936" width="119.589" height="20.4177" fill="#DB2519"/>
<rect x="228.506" y="423.104" width="55.4194" height="20.4177" fill="#DA2614"/>
<circle cx="254.757" cy="469.773" r="11.6672" fill="#04923A"/>
</svg>
