<svg width="533" height="96" viewBox="0 0 533 96" fill="none" xmlns="http://www.w3.org/2000/svg">
<path d="M95.4926 35.4082C95.4926 34.2832 95.0941 33.416 94.2973 32.8066C93.5121 32.1973 92.0883 31.582 90.0258 30.9609C87.9633 30.3398 86.3227 29.6484 85.1039 28.8867C82.7719 27.4219 81.6059 25.5117 81.6059 23.1562C81.6059 21.0938 82.4438 19.3945 84.1195 18.0586C85.807 16.7227 87.9926 16.0547 90.6762 16.0547C92.4574 16.0547 94.0453 16.3828 95.4398 17.0391C96.8344 17.6953 97.9301 18.6328 98.727 19.8516C99.5238 21.0586 99.9223 22.4004 99.9223 23.877H95.4926C95.4926 22.541 95.0707 21.498 94.227 20.748C93.3949 19.9863 92.1996 19.6055 90.641 19.6055C89.1879 19.6055 88.057 19.916 87.2484 20.5371C86.4516 21.1582 86.0531 22.0254 86.0531 23.1387C86.0531 24.0762 86.4867 24.8613 87.3539 25.4941C88.2211 26.1152 89.6508 26.7246 91.643 27.3223C93.6352 27.9082 95.2348 28.582 96.4418 29.3438C97.6488 30.0938 98.5336 30.9609 99.0961 31.9453C99.6586 32.918 99.9398 34.0605 99.9398 35.373C99.9398 37.5059 99.1195 39.2051 97.4789 40.4707C95.85 41.7246 93.6352 42.3516 90.8344 42.3516C88.9828 42.3516 87.2777 42.0117 85.7191 41.332C84.1723 40.6406 82.9652 39.6914 82.0981 38.4844C81.2426 37.2773 80.8148 35.8711 80.8148 34.2656H85.2621C85.2621 35.7188 85.7426 36.8438 86.7035 37.6406C87.6645 38.4375 89.0414 38.8359 90.8344 38.8359C92.3813 38.8359 93.5414 38.5254 94.3148 37.9043C95.1 37.2715 95.4926 36.4395 95.4926 35.4082ZM119.201 30.5742H108.689V38.4492H120.977V42H104.242V16.4062H120.854V19.9922H108.689V27.0586H119.201V30.5742ZM129.445 38.4492H141.064V42H124.998V16.4062H129.445V38.4492ZM150.271 36.4277L156.775 16.4062H161.661L152.45 42H148.144L138.968 16.4062H143.837L150.271 36.4277ZM177.952 36.041H168.038L165.964 42H161.341L171.009 16.4062H174.999L184.684 42H180.044L177.952 36.041ZM169.286 32.4551H176.704L172.995 21.8379L169.286 32.4551ZM208.305 42H203.858L192.45 23.8418V42H188.002V16.4062H192.45L203.893 34.6348V16.4062H208.305V42ZM236.703 35.4082C236.703 34.2832 236.304 33.416 235.507 32.8066C234.722 32.1973 233.298 31.582 231.236 30.9609C229.173 30.3398 227.533 29.6484 226.314 28.8867C223.982 27.4219 222.816 25.5117 222.816 23.1562C222.816 21.0938 223.654 19.3945 225.33 18.0586C227.017 16.7227 229.203 16.0547 231.886 16.0547C233.668 16.0547 235.255 16.3828 236.65 17.0391C238.045 17.6953 239.14 18.6328 239.937 19.8516C240.734 21.0586 241.132 22.4004 241.132 23.877H236.703C236.703 22.541 236.281 21.498 235.437 20.748C234.605 19.9863 233.41 19.6055 231.851 19.6055C230.398 19.6055 229.267 19.916 228.459 20.5371C227.662 21.1582 227.263 22.0254 227.263 23.1387C227.263 24.0762 227.697 24.8613 228.564 25.4941C229.431 26.1152 230.861 26.7246 232.853 27.3223C234.845 27.9082 236.445 28.582 237.652 29.3438C238.859 30.0938 239.744 30.9609 240.306 31.9453C240.869 32.918 241.15 34.0605 241.15 35.373C241.15 37.5059 240.33 39.2051 238.689 40.4707C237.06 41.7246 234.845 42.3516 232.045 42.3516C230.193 42.3516 228.488 42.0117 226.929 41.332C225.382 40.6406 224.175 39.6914 223.308 38.4844C222.453 37.2773 222.025 35.8711 222.025 34.2656H226.472C226.472 35.7188 226.953 36.8438 227.914 37.6406C228.875 38.4375 230.252 38.8359 232.045 38.8359C233.591 38.8359 234.752 38.5254 235.525 37.9043C236.31 37.2715 236.703 36.4395 236.703 35.4082ZM263.945 19.9922H255.964V42H251.552V19.9922H243.642V16.4062H263.945V19.9922ZM282.679 30.5742H272.167V38.4492H284.454V42H267.72V16.4062H284.331V19.9922H272.167V27.0586H282.679V30.5742ZM303.434 30.5742H292.922V38.4492H305.209V42H288.475V16.4062H305.086V19.9922H292.922V27.0586H303.434V30.5742ZM313.678 38.4492H325.297V42H309.23V16.4062H313.678V38.4492ZM358.792 42H354.363V30.627H342.919V42H338.472V16.4062H342.919V27.0586H354.363V16.4062H358.792V42ZM384.891 29.8711C384.891 32.3789 384.458 34.582 383.591 36.4805C382.723 38.3672 381.481 39.8203 379.864 40.8398C378.259 41.8477 376.407 42.3516 374.309 42.3516C372.235 42.3516 370.384 41.8477 368.755 40.8398C367.138 39.8203 365.884 38.373 364.993 36.498C364.114 34.623 363.669 32.4609 363.657 30.0117V28.5703C363.657 26.0742 364.096 23.8711 364.975 21.9609C365.866 20.0508 367.114 18.5918 368.72 17.584C370.337 16.5645 372.188 16.0547 374.274 16.0547C376.36 16.0547 378.206 16.5586 379.811 17.5664C381.429 18.5625 382.677 20.0039 383.555 21.8906C384.434 23.7656 384.88 25.9512 384.891 28.4473V29.8711ZM380.444 28.5352C380.444 25.6992 379.905 23.5254 378.827 22.0137C377.761 20.502 376.243 19.7461 374.274 19.7461C372.352 19.7461 370.846 20.502 369.757 22.0137C368.679 23.5137 368.128 25.6406 368.104 28.3945V29.8711C368.104 32.6836 368.649 34.8574 369.739 36.3926C370.841 37.9277 372.364 38.6953 374.309 38.6953C376.278 38.6953 377.79 37.9453 378.845 36.4453C379.911 34.9453 380.444 32.7539 380.444 29.8711V28.5352ZM408.442 16.4062V33.5098C408.442 36.2285 407.569 38.3848 405.823 39.9785C404.088 41.5605 401.774 42.3516 398.879 42.3516C395.95 42.3516 393.623 41.5723 391.901 40.0137C390.178 38.4434 389.317 36.2695 389.317 33.4922V16.4062H393.746V33.5273C393.746 35.2383 394.18 36.5449 395.047 37.4473C395.914 38.3496 397.192 38.8008 398.879 38.8008C402.301 38.8008 404.012 36.9961 404.012 33.3867V16.4062H408.442ZM426.982 35.4082C426.982 34.2832 426.584 33.416 425.787 32.8066C425.002 32.1973 423.578 31.582 421.516 30.9609C419.453 30.3398 417.812 29.6484 416.594 28.8867C414.262 27.4219 413.096 25.5117 413.096 23.1562C413.096 21.0938 413.934 19.3945 415.609 18.0586C417.297 16.7227 419.482 16.0547 422.166 16.0547C423.947 16.0547 425.535 16.3828 426.93 17.0391C428.324 17.6953 429.42 18.6328 430.217 19.8516C431.014 21.0586 431.412 22.4004 431.412 23.877H426.982C426.982 22.541 426.561 21.498 425.717 20.748C424.885 19.9863 423.689 19.6055 422.131 19.6055C420.678 19.6055 419.547 19.916 418.738 20.5371C417.941 21.1582 417.543 22.0254 417.543 23.1387C417.543 24.0762 417.977 24.8613 418.844 25.4941C419.711 26.1152 421.141 26.7246 423.133 27.3223C425.125 27.9082 426.725 28.582 427.932 29.3438C429.139 30.0938 430.023 30.9609 430.586 31.9453C431.148 32.918 431.43 34.0605 431.43 35.373C431.43 37.5059 430.609 39.2051 428.969 40.4707C427.34 41.7246 425.125 42.3516 422.324 42.3516C420.473 42.3516 418.768 42.0117 417.209 41.332C415.662 40.6406 414.455 39.6914 413.588 38.4844C412.732 37.2773 412.305 35.8711 412.305 34.2656H416.752C416.752 35.7188 417.232 36.8438 418.193 37.6406C419.154 38.4375 420.531 38.8359 422.324 38.8359C423.871 38.8359 425.031 38.5254 425.805 37.9043C426.59 37.2715 426.982 36.4395 426.982 35.4082ZM450.691 30.5742H440.179V38.4492H452.466V42H435.732V16.4062H452.343V19.9922H440.179V27.0586H450.691V30.5742Z" fill="#FF4949" fill-opacity="0.95"/>
<path d="M114.92 69.125C115.252 69.125 115.509 69.2202 115.689 69.4106C115.87 69.5962 115.96 69.8306 115.96 70.1138C115.96 70.3921 115.87 70.624 115.689 70.8096C115.509 70.9902 115.252 71.0806 114.92 71.0806C114.603 71.0806 114.352 70.9902 114.166 70.8096C113.98 70.6289 113.888 70.397 113.888 70.1138C113.888 69.8306 113.978 69.5962 114.159 69.4106C114.339 69.2202 114.593 69.125 114.92 69.125ZM122.33 68.6782L125.04 60.3359H127.076L123.238 71H121.443L117.62 60.3359H119.649L122.33 68.6782ZM134.917 66.2393H130.537V69.5205H135.657V71H128.684V60.3359H135.606V61.8301H130.537V64.7744H134.917V66.2393ZM143.139 68.2534C143.139 67.7847 142.973 67.4233 142.641 67.1694C142.314 66.9155 141.721 66.6592 140.862 66.4004C140.002 66.1416 139.319 65.8535 138.811 65.5361C137.839 64.9258 137.353 64.1299 137.353 63.1484C137.353 62.2891 137.702 61.5811 138.401 61.0244C139.104 60.4678 140.014 60.1895 141.133 60.1895C141.875 60.1895 142.536 60.3262 143.118 60.5996C143.699 60.873 144.155 61.2637 144.487 61.7715C144.819 62.2744 144.985 62.8335 144.985 63.4487H143.139C143.139 62.8921 142.964 62.4575 142.612 62.145C142.265 61.8276 141.767 61.6689 141.118 61.6689C140.513 61.6689 140.041 61.7983 139.704 62.0571C139.372 62.3159 139.206 62.6772 139.206 63.1411C139.206 63.5317 139.387 63.8589 139.748 64.1226C140.11 64.3813 140.705 64.6353 141.535 64.8843C142.366 65.1284 143.032 65.4092 143.535 65.7266C144.038 66.0391 144.407 66.4004 144.641 66.8105C144.875 67.2158 144.993 67.6919 144.993 68.2388C144.993 69.1274 144.651 69.8354 143.967 70.3628C143.288 70.8853 142.366 71.1465 141.199 71.1465C140.427 71.1465 139.717 71.0049 139.067 70.7217C138.423 70.4336 137.92 70.0381 137.558 69.5352C137.202 69.0322 137.024 68.4463 137.024 67.7773H138.877C138.877 68.3828 139.077 68.8516 139.477 69.1836C139.878 69.5156 140.451 69.6816 141.199 69.6816C141.843 69.6816 142.326 69.5522 142.649 69.2935C142.976 69.0298 143.139 68.6831 143.139 68.2534ZM152.592 68.2534C152.592 67.7847 152.426 67.4233 152.094 67.1694C151.767 66.9155 151.174 66.6592 150.314 66.4004C149.455 66.1416 148.771 65.8535 148.264 65.5361C147.292 64.9258 146.806 64.1299 146.806 63.1484C146.806 62.2891 147.155 61.5811 147.853 61.0244C148.557 60.4678 149.467 60.1895 150.585 60.1895C151.328 60.1895 151.989 60.3262 152.57 60.5996C153.151 60.873 153.608 61.2637 153.94 61.7715C154.272 62.2744 154.438 62.8335 154.438 63.4487H152.592C152.592 62.8921 152.416 62.4575 152.065 62.145C151.718 61.8276 151.22 61.6689 150.571 61.6689C149.965 61.6689 149.494 61.7983 149.157 62.0571C148.825 62.3159 148.659 62.6772 148.659 63.1411C148.659 63.5317 148.84 63.8589 149.201 64.1226C149.562 64.3813 150.158 64.6353 150.988 64.8843C151.818 65.1284 152.485 65.4092 152.988 65.7266C153.491 66.0391 153.859 66.4004 154.094 66.8105C154.328 67.2158 154.445 67.6919 154.445 68.2388C154.445 69.1274 154.103 69.8354 153.42 70.3628C152.741 70.8853 151.818 71.1465 150.651 71.1465C149.88 71.1465 149.169 71.0049 148.52 70.7217C147.875 70.4336 147.372 70.0381 147.011 69.5352C146.655 69.0322 146.476 68.4463 146.476 67.7773H148.33C148.33 68.3828 148.53 68.8516 148.93 69.1836C149.33 69.5156 149.904 69.6816 150.651 69.6816C151.296 69.6816 151.779 69.5522 152.101 69.2935C152.429 69.0298 152.592 68.6831 152.592 68.2534ZM162.704 66.2393H158.324V69.5205H163.444V71H156.471V60.3359H163.393V61.8301H158.324V64.7744H162.704V66.2393ZM167.206 69.5205H172.047V71H165.353V60.3359H167.206V69.5205ZM179.442 68.2534C179.442 67.7847 179.276 67.4233 178.944 67.1694C178.616 66.9155 178.023 66.6592 177.164 66.4004C176.304 66.1416 175.621 65.8535 175.113 65.5361C174.141 64.9258 173.656 64.1299 173.656 63.1484C173.656 62.2891 174.005 61.5811 174.703 61.0244C175.406 60.4678 176.317 60.1895 177.435 60.1895C178.177 60.1895 178.839 60.3262 179.42 60.5996C180.001 60.873 180.457 61.2637 180.789 61.7715C181.121 62.2744 181.287 62.8335 181.287 63.4487H179.442C179.442 62.8921 179.266 62.4575 178.914 62.145C178.568 61.8276 178.07 61.6689 177.42 61.6689C176.815 61.6689 176.343 61.7983 176.007 62.0571C175.675 62.3159 175.509 62.6772 175.509 63.1411C175.509 63.5317 175.689 63.8589 176.051 64.1226C176.412 64.3813 177.008 64.6353 177.838 64.8843C178.668 65.1284 179.334 65.4092 179.837 65.7266C180.34 66.0391 180.709 66.4004 180.943 66.8105C181.177 67.2158 181.295 67.6919 181.295 68.2388C181.295 69.1274 180.953 69.8354 180.269 70.3628C179.591 70.8853 178.668 71.1465 177.501 71.1465C176.729 71.1465 176.019 71.0049 175.369 70.7217C174.725 70.4336 174.222 70.0381 173.861 69.5352C173.504 69.0322 173.326 68.4463 173.326 67.7773H175.179C175.179 68.3828 175.379 68.8516 175.78 69.1836C176.18 69.5156 176.754 69.6816 177.501 69.6816C178.145 69.6816 178.629 69.5522 178.951 69.2935C179.278 69.0298 179.442 68.6831 179.442 68.2534ZM188.393 69.125C188.726 69.125 188.982 69.2202 189.163 69.4106C189.343 69.5962 189.434 69.8306 189.434 70.1138C189.434 70.3921 189.343 70.624 189.163 70.8096C188.982 70.9902 188.726 71.0806 188.393 71.0806C188.076 71.0806 187.825 70.9902 187.639 70.8096C187.454 70.6289 187.361 70.397 187.361 70.1138C187.361 69.8306 187.451 69.5962 187.632 69.4106C187.812 69.2202 188.066 69.125 188.393 69.125ZM200.512 71H198.667V66.2612H193.898V71H192.045V60.3359H193.898V64.7744H198.667V60.3359H200.512V71ZM211.62 65.9463C211.62 66.9912 211.44 67.9092 211.078 68.7002C210.717 69.4863 210.199 70.0918 209.526 70.5166C208.857 70.9365 208.085 71.1465 207.211 71.1465C206.347 71.1465 205.575 70.9365 204.897 70.5166C204.223 70.0918 203.7 69.4888 203.329 68.7075C202.963 67.9263 202.777 67.0254 202.773 66.0049V65.4043C202.773 64.3643 202.956 63.4463 203.322 62.6504C203.693 61.8545 204.213 61.2466 204.882 60.8267C205.556 60.4019 206.327 60.1895 207.196 60.1895C208.066 60.1895 208.835 60.3994 209.504 60.8193C210.177 61.2344 210.697 61.835 211.064 62.6211C211.43 63.4023 211.615 64.313 211.62 65.353V65.9463ZM209.767 65.3896C209.767 64.208 209.543 63.3022 209.093 62.6724C208.649 62.0425 208.017 61.7275 207.196 61.7275C206.396 61.7275 205.768 62.0425 205.314 62.6724C204.865 63.2974 204.635 64.1836 204.626 65.3311V65.9463C204.626 67.1182 204.853 68.0239 205.307 68.6636C205.766 69.3032 206.401 69.623 207.211 69.623C208.031 69.623 208.661 69.3105 209.101 68.6855C209.545 68.0605 209.767 67.1475 209.767 65.9463V65.3896ZM216.268 60.3359L219.344 68.5098L222.413 60.3359H224.808V71H222.963V67.4844L223.146 62.7822L219.996 71H218.671L215.529 62.7896L215.712 67.4844V71H213.866V60.3359H216.268ZM233.639 66.2393H229.259V69.5205H234.378V71H227.406V60.3359H234.327V61.8301H229.259V64.7744H233.639V66.2393ZM242.256 68.5171H238.125L237.261 71H235.335L239.363 60.3359H241.026L245.061 71H243.128L242.256 68.5171ZM238.645 67.0229H241.736L240.191 62.5991L238.645 67.0229ZM248.53 67.0376V71H246.677V60.3359H250.757C251.948 60.3359 252.893 60.646 253.591 61.2661C254.294 61.8862 254.646 62.7065 254.646 63.7271C254.646 64.772 254.302 65.585 253.613 66.166C252.93 66.7471 251.97 67.0376 250.735 67.0376H248.53ZM248.53 65.5508H250.757C251.416 65.5508 251.919 65.397 252.266 65.0894C252.612 64.7769 252.786 64.3276 252.786 63.7417C252.786 63.1655 252.61 62.7065 252.258 62.3647C251.907 62.0181 251.423 61.8398 250.808 61.8301H248.53V65.5508ZM258.525 67.0376V71H256.672V60.3359H260.752C261.943 60.3359 262.888 60.646 263.586 61.2661C264.289 61.8862 264.641 62.7065 264.641 63.7271C264.641 64.772 264.297 65.585 263.608 66.166C262.924 66.7471 261.965 67.0376 260.73 67.0376H258.525ZM258.525 65.5508H260.752C261.411 65.5508 261.914 65.397 262.26 65.0894C262.607 64.7769 262.78 64.3276 262.78 63.7417C262.78 63.1655 262.605 62.7065 262.253 62.3647C261.901 62.0181 261.418 61.8398 260.803 61.8301H258.525V65.5508ZM268.52 69.5205H273.361V71H266.667V60.3359H268.52V69.5205ZM277.138 71H275.292V60.3359H277.138V71ZM285.916 68.5171H281.786L280.921 71H278.995L283.023 60.3359H284.686L288.722 71H286.788L285.916 68.5171ZM282.306 67.0229H285.396L283.851 62.5991L282.306 67.0229ZM298.797 71H296.944L292.19 63.4341V71H290.337V60.3359H292.19L296.959 67.9312V60.3359H298.797V71ZM309.524 67.5283C309.417 68.666 308.997 69.5547 308.264 70.1943C307.532 70.8291 306.558 71.1465 305.342 71.1465C304.492 71.1465 303.743 70.9463 303.093 70.5459C302.449 70.1406 301.951 69.5669 301.599 68.8247C301.248 68.0825 301.065 67.2207 301.05 66.2393V65.2432C301.05 64.2373 301.228 63.3511 301.585 62.5845C301.941 61.8179 302.451 61.2271 303.115 60.812C303.784 60.397 304.556 60.1895 305.43 60.1895C306.607 60.1895 307.554 60.5093 308.272 61.1489C308.989 61.7886 309.407 62.6919 309.524 63.8589H307.678C307.59 63.0923 307.366 62.5405 307.005 62.2036C306.648 61.8618 306.123 61.6909 305.43 61.6909C304.624 61.6909 304.004 61.9863 303.569 62.5771C303.14 63.1631 302.92 64.0249 302.91 65.1626V66.1074C302.91 67.2598 303.115 68.1387 303.526 68.7441C303.941 69.3496 304.546 69.6523 305.342 69.6523C306.069 69.6523 306.616 69.4888 306.983 69.1616C307.349 68.8345 307.581 68.29 307.678 67.5283H309.524ZM317.82 66.2393H313.44V69.5205H318.559V71H311.587V60.3359H318.508V61.8301H313.44V64.7744H317.82V66.2393ZM326.042 68.2534C326.042 67.7847 325.876 67.4233 325.544 67.1694C325.217 66.9155 324.623 66.6592 323.764 66.4004C322.905 66.1416 322.221 65.8535 321.713 65.5361C320.742 64.9258 320.256 64.1299 320.256 63.1484C320.256 62.2891 320.605 61.5811 321.303 61.0244C322.006 60.4678 322.917 60.1895 324.035 60.1895C324.777 60.1895 325.439 60.3262 326.02 60.5996C326.601 60.873 327.057 61.2637 327.389 61.7715C327.721 62.2744 327.888 62.8335 327.888 63.4487H326.042C326.042 62.8921 325.866 62.4575 325.514 62.145C325.168 61.8276 324.67 61.6689 324.02 61.6689C323.415 61.6689 322.944 61.7983 322.607 62.0571C322.275 62.3159 322.109 62.6772 322.109 63.1411C322.109 63.5317 322.289 63.8589 322.651 64.1226C323.012 64.3813 323.608 64.6353 324.438 64.8843C325.268 65.1284 325.934 65.4092 326.437 65.7266C326.94 66.0391 327.309 66.4004 327.543 66.8105C327.778 67.2158 327.895 67.6919 327.895 68.2388C327.895 69.1274 327.553 69.8354 326.869 70.3628C326.191 70.8853 325.268 71.1465 324.101 71.1465C323.329 71.1465 322.619 71.0049 321.97 70.7217C321.325 70.4336 320.822 70.0381 320.461 69.5352C320.104 69.0322 319.926 68.4463 319.926 67.7773H321.779C321.779 68.3828 321.979 68.8516 322.38 69.1836C322.78 69.5156 323.354 69.6816 324.101 69.6816C324.745 69.6816 325.229 69.5522 325.551 69.2935C325.878 69.0298 326.042 68.6831 326.042 68.2534ZM334.994 69.125C335.326 69.125 335.582 69.2202 335.763 69.4106C335.943 69.5962 336.034 69.8306 336.034 70.1138C336.034 70.3921 335.943 70.624 335.763 70.8096C335.582 70.9902 335.326 71.0806 334.994 71.0806C334.676 71.0806 334.425 70.9902 334.239 70.8096C334.054 70.6289 333.961 70.397 333.961 70.1138C333.961 69.8306 334.051 69.5962 334.232 69.4106C334.413 69.2202 334.667 69.125 334.994 69.125ZM344.791 66.481H340.499V71H338.646V60.3359H345.421V61.8301H340.499V65.0015H344.791V66.481ZM355.093 60.3359V67.4624C355.093 68.5952 354.729 69.4937 354.002 70.1577C353.279 70.8169 352.315 71.1465 351.109 71.1465C349.888 71.1465 348.919 70.8218 348.201 70.1724C347.483 69.5181 347.124 68.6123 347.124 67.4551V60.3359H348.97V67.4697C348.97 68.1826 349.151 68.7271 349.512 69.103C349.873 69.479 350.406 69.667 351.109 69.667C352.534 69.667 353.247 68.915 353.247 67.4111V60.3359H355.093ZM361.396 66.8911H359.331V71H357.478V60.3359H361.228C362.458 60.3359 363.408 60.6118 364.077 61.1636C364.746 61.7153 365.08 62.5137 365.08 63.5586C365.08 64.2715 364.907 64.8696 364.56 65.353C364.219 65.8315 363.74 66.2002 363.125 66.459L365.52 70.9048V71H363.535L361.396 66.8911ZM359.331 65.4043H361.235C361.86 65.4043 362.348 65.248 362.7 64.9355C363.052 64.6182 363.227 64.186 363.227 63.6392C363.227 63.0679 363.064 62.626 362.737 62.3135C362.414 62.001 361.931 61.8398 361.286 61.8301H359.331V65.4043ZM375.698 71H373.845L369.091 63.4341V71H367.238V60.3359H369.091L373.859 67.9312V60.3359H375.698V71ZM380.243 71H378.397V60.3359H380.243V71ZM390.406 61.8301H387.081V71H385.243V61.8301H381.947V60.3359H390.406V61.8301ZM400.013 60.3359V67.4624C400.013 68.5952 399.649 69.4937 398.922 70.1577C398.199 70.8169 397.235 71.1465 396.029 71.1465C394.808 71.1465 393.839 70.8218 393.121 70.1724C392.403 69.5181 392.044 68.6123 392.044 67.4551V60.3359H393.89V67.4697C393.89 68.1826 394.071 68.7271 394.432 69.103C394.793 69.479 395.325 69.667 396.029 69.667C397.454 69.667 398.167 68.915 398.167 67.4111V60.3359H400.013ZM406.316 66.8911H404.251V71H402.398V60.3359H406.148C407.378 60.3359 408.328 60.6118 408.997 61.1636C409.666 61.7153 410 62.5137 410 63.5586C410 64.2715 409.827 64.8696 409.48 65.353C409.139 65.8315 408.66 66.2002 408.045 66.459L410.44 70.9048V71H408.455L406.316 66.8911ZM404.251 65.4043H406.155C406.78 65.4043 407.268 65.248 407.62 64.9355C407.972 64.6182 408.147 64.186 408.147 63.6392C408.147 63.0679 407.984 62.626 407.657 62.3135C407.334 62.001 406.851 61.8398 406.206 61.8301H404.251V65.4043ZM418.391 66.2393H414.011V69.5205H419.131V71H412.158V60.3359H419.08V61.8301H414.011V64.7744H418.391V66.2393Z" fill="black" fill-opacity="0.82"/>
</svg>
